<?xml version="1.0" encoding="utf-8"?>
<!-- Generator: Adobe Illustrator 19.0.0, SVG Export Plug-In . SVG Version: 6.00 Build 0)  -->
<svg version="1.1" id="Capa_1" xmlns="http://www.w3.org/2000/svg" xmlns:xlink="http://www.w3.org/1999/xlink" x="0px" y="0px"
	 viewBox="-777 522 365 37" style="enable-background:new -777 522 365 37;" xml:space="preserve">
<style type="text/css">
	.st0{fill:#FFFFFF;}
	.st1{fill:#FC5200;}
</style>
<path class="st0" d="M-776.1,557.2h2.4v-6.1h4c3.5,0,5.5-1.9,5.5-5.1c0-3.2-2.1-5.1-5.5-5.1h-6.5V557.2z M-773.7,548.8V543h4
	c2.2,0,3.2,0.9,3.2,2.9c0,1.9-1.1,2.9-3.2,2.9H-773.7z M-753.3,557.5c4.2,0,7-3.4,7-8.5s-2.8-8.5-7-8.5c-4.2,0-7,3.4-7,8.5
	S-757.5,557.5-753.3,557.5z M-753.3,555.3c-2.8,0-4.6-2.4-4.6-6.3c0-3.9,1.7-6.3,4.6-6.3c2.9,0,4.6,2.4,4.6,6.3
	C-748.7,552.9-750.5,555.3-753.3,555.3z M-739.5,557.2h2.8l3.8-12.6h0l3.7,12.6h2.8l3.1-16.4h-2.5l-2.3,12.5h0l-3.7-12.5h-2.3
	l-3.7,12.5h0l-2.3-12.5h-2.5L-739.5,557.2z M-718.7,557.2h10v-2.2h-7.6v-5.1h7v-2.2h-7V543h7.6v-2.2h-10V557.2z M-695.4,550.6
	c2.4-0.5,3.8-2.3,3.8-4.8c0-3.1-2.1-5-5.5-5h-6.2v16.4h2.4v-6.4h2.9l3.4,6.4h2.7L-695.4,550.6L-695.4,550.6z M-700.8,548.5V543h3.5
	c2.2,0,3.3,0.9,3.3,2.7s-1.1,2.8-3.3,2.8H-700.8z M-686.5,557.2h10v-2.2h-7.6v-5.1h7v-2.2h-7V543h7.6v-2.2h-10V557.2z M-671.1,557.2
	h5.2c4.3,0,7.2-2.6,7.2-8.2c0-5.1-2.9-8.2-7.1-8.2h-5.3V557.2z M-668.7,554.9V543h2.8c2.9,0,4.8,2,4.8,5.9c0,4.3-1.8,6-4.9,6H-668.7
	z M-644.9,557.2h6.1c3.9,0,5.9-1.7,5.9-4.9c0-1.8-1-3.3-2.4-3.9v0c1.1-0.6,1.8-1.8,1.8-3.3c0-2.6-1.9-4.3-4.8-4.3h-6.6V557.2z
	 M-642.5,547.6V543h3.7c1.8,0,2.8,0.8,2.8,2.3c0,1.5-0.9,2.3-2.8,2.3H-642.5z M-642.5,554.9v-5.3h3.7c2.4,0,3.4,0.8,3.4,2.6
	c0,1.9-1.1,2.7-3.5,2.7H-642.5z M-625,557.2h2.4v-6.8l5.6-9.6h-2.7l-4.1,7.3h0l-4.1-7.3h-2.7l5.7,9.6V557.2z"/>
<g>
	<polygon class="st1" points="-430.6,522 -449.1,557.6 -436.8,557.6 -430.6,545.2 -424.5,557.6 -412.2,557.6 	"/>
	<polygon class="st1" points="-457.7,559 -439.3,523.4 -451.5,523.4 -457.7,535.8 -463.9,523.4 -476.2,523.4 	"/>
	<path class="st1" d="M-484.8,522l-17.5,33.8l-6.7-9.8c4.1-2,6.7-5.5,6.7-10.4v-0.1c0-3.5-1.1-6.1-3.1-8.1
		c-2.4-2.4-6.2-3.9-12.3-3.9h-16.7v34.2h11.4v-9.8h2.4l6.4,9.8h13l0,0h10.1l6.2-12.4l6.2,12.4h12.2L-484.8,522z M-513.7,536.4
		c0,2.1-1.7,3.3-4.4,3.3h-4.9V533h5C-515.4,533-513.7,534.1-513.7,536.4L-513.7,536.4z"/>
	<polygon class="st1" points="-558.8,533.1 -568.9,533.1 -568.9,523.4 -537.4,523.4 -537.4,533.1 -547.4,533.1 -547.4,557.6 
		-558.8,557.6 	"/>
	<path class="st1" d="M-596.7,545.2l-6.1,7.3c4.3,3.8,10.6,5.8,17.5,5.8c9.2,0,15.1-4.4,15.1-11.6v-0.1c0-6.9-5.9-9.4-14.6-11
		c-3.6-0.7-4.5-1.3-4.5-2.2v-0.1c0-0.8,0.8-1.4,2.5-1.4c3.2,0,7,1,10.3,3.4l5.6-7.7c-4-3.1-8.8-4.7-15.4-4.7
		c-9.4,0-14.5,5-14.5,11.5v0.1c0,7.2,6.7,9.4,14.4,11c3.7,0.7,4.7,1.3,4.7,2.2v0.1c0,0.9-0.9,1.5-2.9,1.5
		C-588.8,549.2-593,548-596.7,545.2z"/>
</g>
</svg>
